<svg width="1479" height="287" viewBox="0 0 1479 287" fill="none" xmlns="http://www.w3.org/2000/svg">
<path d="M1114.6 118.4C1119.4 113.467 1125.07 109.867 1131.6 107.6C1138.27 105.2 1145 104 1151.8 104C1165.67 104 1175.67 107.267 1181.8 113.8C1187.93 120.333 1191 130.267 1191 143.6V183.8C1191 186.467 1191.13 189.267 1191.4 192.2C1191.67 195 1192 197.6 1192.4 200H1177.4C1176.87 197.867 1176.53 195.533 1176.4 193C1176.4 190.333 1176.4 188 1176.4 186H1176C1172.93 190.8 1168.8 194.733 1163.6 197.8C1158.53 200.867 1152.4 202.4 1145.2 202.4C1140.4 202.4 1135.87 201.8 1131.6 200.6C1127.47 199.4 1123.8 197.667 1120.6 195.4C1117.53 193 1115.07 190.067 1113.2 186.6C1111.33 183.133 1110.4 179.133 1110.4 174.6C1110.4 166.867 1112.4 160.8 1116.4 156.4C1120.4 152 1125.33 148.733 1131.2 146.6C1137.2 144.467 1143.6 143.133 1150.4 142.6C1157.33 142.067 1163.67 141.8 1169.4 141.8H1175.4V139C1175.4 132.2 1173.33 127.067 1169.2 123.6C1165.2 120.133 1159.53 118.4 1152.2 118.4C1147.13 118.4 1142.13 119.267 1137.2 121C1132.4 122.6 1128.13 125.133 1124.4 128.6L1114.6 118.4ZM1159.8 155C1149.8 155 1141.87 156.4 1136 159.2C1130.13 162 1127.2 166.6 1127.2 173C1127.2 178.867 1129.13 183.067 1133 185.6C1137 188 1141.93 189.2 1147.8 189.2C1152.33 189.2 1156.27 188.467 1159.6 187C1163.07 185.4 1165.93 183.333 1168.2 180.8C1170.47 178.267 1172.2 175.333 1173.4 172C1174.6 168.533 1175.27 164.867 1175.4 161V155H1159.8ZM1219.51 128.6C1219.51 124.333 1219.38 120.333 1219.11 116.6C1218.84 112.867 1218.71 109.467 1218.71 106.4H1233.51C1233.51 108.933 1233.58 111.467 1233.71 114C1233.84 116.533 1233.91 119.133 1233.91 121.8H1234.31C1235.38 119.533 1236.84 117.333 1238.71 115.2C1240.71 113.067 1243.04 111.2 1245.71 109.6C1248.38 107.867 1251.38 106.533 1254.71 105.6C1258.04 104.533 1261.64 104 1265.51 104C1266.58 104 1267.64 104.067 1268.71 104.2C1269.78 104.333 1270.84 104.6 1271.91 105L1270.91 120.8C1268.24 120 1265.44 119.6 1262.51 119.6C1252.91 119.6 1245.91 122.733 1241.51 129C1237.24 135.133 1235.11 143.6 1235.11 154.4V200H1219.51V128.6ZM1364.11 183.4H1363.71C1360.77 188.733 1356.11 193.267 1349.71 197C1343.44 200.6 1336.11 202.4 1327.71 202.4C1321.17 202.4 1315.04 201.2 1309.31 198.8C1303.57 196.267 1298.57 192.8 1294.31 188.4C1290.17 184 1286.91 178.8 1284.51 172.8C1282.11 166.8 1280.91 160.267 1280.91 153.2C1280.91 146.133 1282.11 139.6 1284.51 133.6C1286.91 127.6 1290.24 122.4 1294.51 118C1298.77 113.6 1303.91 110.2 1309.91 107.8C1316.04 105.267 1322.77 104 1330.11 104C1336.91 104 1343.11 105.4 1348.71 108.2C1354.44 111 1359.44 114.933 1363.71 120H1364.11V48.8H1379.71V200H1364.11V183.4ZM1364.11 153.2C1364.11 148.267 1363.31 143.733 1361.71 139.6C1360.24 135.333 1358.04 131.667 1355.11 128.6C1352.17 125.4 1348.64 122.933 1344.51 121.2C1340.51 119.333 1335.97 118.4 1330.91 118.4C1325.84 118.4 1321.24 119.333 1317.11 121.2C1313.11 122.933 1309.64 125.4 1306.71 128.6C1303.77 131.667 1301.51 135.333 1299.91 139.6C1298.44 143.733 1297.71 148.267 1297.71 153.2C1297.71 158.133 1298.44 162.733 1299.91 167C1301.51 171.133 1303.77 174.8 1306.71 178C1309.64 181.067 1313.11 183.533 1317.11 185.4C1321.24 187.133 1325.84 188 1330.91 188C1335.97 188 1340.51 187.133 1344.51 185.4C1348.64 183.533 1352.17 181.067 1355.11 178C1358.04 174.8 1360.24 171.133 1361.71 167C1363.31 162.733 1364.11 158.133 1364.11 153.2ZM1410.57 175.4C1413.64 179.267 1416.97 182.333 1420.57 184.6C1424.31 186.867 1428.97 188 1434.57 188C1436.97 188 1439.37 187.733 1441.77 187.2C1444.31 186.667 1446.57 185.8 1448.57 184.6C1450.57 183.4 1452.17 181.933 1453.37 180.2C1454.57 178.333 1455.17 176.133 1455.17 173.6C1455.17 171.067 1454.57 169 1453.37 167.4C1452.31 165.8 1450.84 164.467 1448.97 163.4C1447.11 162.2 1444.97 161.267 1442.57 160.6C1440.17 159.933 1437.71 159.333 1435.17 158.8C1430.77 157.867 1426.57 156.8 1422.57 155.6C1418.57 154.4 1415.04 152.867 1411.97 151C1409.04 149 1406.64 146.467 1404.77 143.4C1403.04 140.333 1402.17 136.4 1402.17 131.6C1402.17 127.067 1403.17 123.067 1405.17 119.6C1407.17 116.133 1409.84 113.267 1413.17 111C1416.51 108.733 1420.24 107 1424.37 105.8C1428.51 104.6 1432.77 104 1437.17 104C1443.84 104 1449.97 105.333 1455.57 108C1461.31 110.667 1465.77 115 1468.97 121L1455.97 129.6C1453.97 126.267 1451.31 123.6 1447.97 121.6C1444.77 119.467 1440.84 118.4 1436.17 118.4C1434.04 118.4 1431.84 118.667 1429.57 119.2C1427.44 119.733 1425.51 120.533 1423.77 121.6C1422.04 122.667 1420.57 124.067 1419.37 125.8C1418.31 127.4 1417.77 129.267 1417.77 131.4C1417.77 133.4 1418.37 135.133 1419.57 136.6C1420.91 137.933 1422.64 139.133 1424.77 140.2C1427.04 141.267 1429.57 142.2 1432.37 143C1435.31 143.8 1438.31 144.467 1441.37 145C1445.51 145.8 1449.44 146.867 1453.17 148.2C1456.91 149.4 1460.17 151.067 1462.97 153.2C1465.77 155.333 1467.97 158 1469.57 161.2C1471.17 164.4 1471.97 168.333 1471.97 173C1471.97 178.333 1470.91 182.867 1468.77 186.6C1466.64 190.333 1463.77 193.4 1460.17 195.8C1456.71 198.067 1452.71 199.733 1448.17 200.8C1443.77 201.867 1439.24 202.4 1434.57 202.4C1426.57 202.4 1419.64 201.2 1413.77 198.8C1408.04 196.267 1402.84 191.667 1398.17 185L1410.57 175.4Z" fill="black"/>
<path d="M544.3 125.58H515.32V174.72C515.32 177.94 515.39 180.95 515.53 183.75C515.67 186.41 516.23 188.79 517.21 190.89C518.19 192.85 519.66 194.46 521.62 195.72C523.58 196.84 526.38 197.4 530.02 197.4C532.4 197.4 534.85 197.12 537.37 196.56C539.89 196 542.27 195.16 544.51 194.04L545.14 208.95C542.34 210.21 539.19 211.12 535.69 211.68C532.33 212.24 529.11 212.52 526.03 212.52C520.15 212.52 515.46 211.75 511.96 210.21C508.46 208.67 505.73 206.5 503.77 203.7C501.81 200.9 500.48 197.47 499.78 193.41C499.22 189.21 498.94 184.59 498.94 179.55V125.58H477.52V111.72H498.94V83.79H515.32V111.72H544.3V125.58ZM566.043 111.72H582.423V210H566.043V111.72ZM562.263 73.29C562.263 70.07 563.383 67.27 565.623 64.89C568.003 62.51 570.873 61.32 574.233 61.32C577.593 61.32 580.393 62.51 582.633 64.89C585.013 67.27 586.203 70.07 586.203 73.29C586.203 76.79 585.083 79.66 582.843 81.9C580.603 84.14 577.733 85.26 574.233 85.26C570.733 85.26 567.863 84.14 565.623 81.9C563.383 79.66 562.263 76.79 562.263 73.29ZM700.702 186.69C700.702 191.17 700.842 195.37 701.122 199.29C701.402 203.21 701.542 206.78 701.542 210H686.002C686.002 207.34 685.932 204.68 685.792 202.02C685.652 199.36 685.582 196.63 685.582 193.83H685.162C684.042 196.21 682.432 198.52 680.332 200.76C678.372 203 675.992 205.03 673.192 206.85C670.392 208.53 667.242 209.86 663.742 210.84C660.242 211.96 656.462 212.52 652.402 212.52C645.962 212.52 640.362 211.54 635.602 209.58C630.982 207.62 627.132 204.89 624.052 201.39C620.972 197.89 618.662 193.69 617.122 188.79C615.722 183.75 615.022 178.29 615.022 172.41V111.72H631.402V170.73C631.402 178.99 633.222 185.5 636.862 190.26C640.502 195.02 646.172 197.4 653.872 197.4C659.192 197.4 663.742 196.49 667.522 194.67C671.442 192.85 674.592 190.26 676.972 186.9C679.492 183.54 681.312 179.55 682.432 174.93C683.692 170.31 684.322 165.2 684.322 159.6V111.72H700.702V186.69ZM731.712 135.03C731.712 130.55 731.572 126.35 731.292 122.43C731.012 118.51 730.872 114.94 730.872 111.72H746.412C746.412 114.38 746.482 117.04 746.622 119.7C746.762 122.36 746.832 125.09 746.832 127.89H747.252C748.372 125.51 749.912 123.2 751.872 120.96C753.972 118.72 756.422 116.76 759.222 115.08C762.022 113.26 765.172 111.86 768.672 110.88C772.172 109.76 775.952 109.2 780.012 109.2C785.332 109.2 789.742 109.9 793.242 111.3C796.882 112.56 799.892 114.17 802.272 116.13C804.652 117.95 806.472 119.98 807.732 122.22C809.132 124.32 810.252 126.21 811.092 127.89C814.732 122.01 818.932 117.46 823.692 114.24C828.452 110.88 834.612 109.2 842.172 109.2C849.172 109.2 855.052 110.18 859.812 112.14C864.572 113.96 868.422 116.69 871.362 120.33C874.302 123.83 876.402 128.17 877.662 133.35C878.922 138.39 879.552 144.06 879.552 150.36V210H863.172V151.2C863.172 147.84 862.822 144.55 862.122 141.33C861.422 138.11 860.162 135.24 858.342 132.72C856.522 130.2 854.072 128.17 850.992 126.63C847.912 125.09 843.992 124.32 839.232 124.32C835.732 124.32 832.442 125.02 829.362 126.42C826.282 127.82 823.552 129.78 821.172 132.3C818.932 134.82 817.112 137.9 815.712 141.54C814.452 145.04 813.822 148.96 813.822 153.3V210H797.442V154.35C797.442 143.43 795.972 135.73 793.032 131.25C790.092 126.63 785.262 124.32 778.542 124.32C773.222 124.32 768.602 125.23 764.682 127.05C760.902 128.87 757.752 131.46 755.232 134.82C752.852 138.18 751.032 142.17 749.772 146.79C748.652 151.41 748.092 156.52 748.092 162.12V210H731.712V135.03Z" fill="black"/>
<path d="M25 144C25 108.101 54.1015 79 90 79H360C395.898 79 425 108.101 425 144C425 179.899 395.898 209 360 209H90C54.1015 209 25 179.899 25 144Z" stroke="black" stroke-width="50"/>
<path d="M920 54H975V184H920V54Z" fill="black"/>
<path d="M975 54H1076V104H975V54Z" fill="black"/>
<path d="M975 184H1076V234H975V184Z" fill="black"/>
</svg>
