<svg width="857" height="199" viewBox="0 0 857 199" fill="none" xmlns="http://www.w3.org/2000/svg">
<path d="M684.023 180.455C682.621 180.455 681.419 179.953 680.415 178.949C679.411 177.945 678.909 176.742 678.909 175.341C678.909 173.939 679.411 172.737 680.415 171.733C681.419 170.729 682.621 170.227 684.023 170.227C685.424 170.227 686.627 170.729 687.631 171.733C688.634 172.737 689.136 173.939 689.136 175.341C689.136 176.269 688.9 177.121 688.426 177.898C687.972 178.674 687.356 179.299 686.58 179.773C685.822 180.227 684.97 180.455 684.023 180.455ZM718.895 180.909C714.804 180.909 711.281 179.943 708.327 178.011C705.372 176.08 703.099 173.419 701.509 170.028C699.918 166.638 699.122 162.765 699.122 158.409C699.122 153.977 699.937 150.066 701.565 146.676C703.213 143.267 705.505 140.606 708.44 138.693C711.395 136.761 714.842 135.795 718.781 135.795C721.849 135.795 724.615 136.364 727.077 137.5C729.539 138.636 731.556 140.227 733.128 142.273C734.7 144.318 735.675 146.705 736.054 149.432H729.349C728.838 147.443 727.702 145.682 725.94 144.148C724.198 142.595 721.849 141.818 718.895 141.818C716.281 141.818 713.99 142.5 712.02 143.864C710.069 145.208 708.545 147.112 707.446 149.574C706.366 152.017 705.827 154.886 705.827 158.182C705.827 161.553 706.357 164.489 707.418 166.989C708.497 169.489 710.012 171.43 711.963 172.812C713.933 174.195 716.243 174.886 718.895 174.886C720.637 174.886 722.219 174.583 723.639 173.977C725.06 173.371 726.262 172.5 727.247 171.364C728.232 170.227 728.933 168.864 729.349 167.273H736.054C735.675 169.848 734.738 172.169 733.241 174.233C731.764 176.278 729.804 177.907 727.361 179.119C724.937 180.312 722.115 180.909 718.895 180.909ZM763.582 180.909C759.643 180.909 756.187 179.972 753.213 178.097C750.259 176.222 747.948 173.598 746.281 170.227C744.634 166.856 743.81 162.917 743.81 158.409C743.81 153.864 744.634 149.896 746.281 146.506C747.948 143.116 750.259 140.483 753.213 138.608C756.187 136.733 759.643 135.795 763.582 135.795C767.522 135.795 770.969 136.733 773.923 138.608C776.897 140.483 779.207 143.116 780.855 146.506C782.522 149.896 783.355 153.864 783.355 158.409C783.355 162.917 782.522 166.856 780.855 170.227C779.207 173.598 776.897 176.222 773.923 178.097C770.969 179.972 767.522 180.909 763.582 180.909ZM763.582 174.886C766.575 174.886 769.037 174.119 770.969 172.585C772.901 171.051 774.33 169.034 775.259 166.534C776.187 164.034 776.651 161.326 776.651 158.409C776.651 155.492 776.187 152.775 775.259 150.256C774.33 147.737 772.901 145.701 770.969 144.148C769.037 142.595 766.575 141.818 763.582 141.818C760.59 141.818 758.128 142.595 756.196 144.148C754.264 145.701 752.834 147.737 751.906 150.256C750.978 152.775 750.514 155.492 750.514 158.409C750.514 161.326 750.978 164.034 751.906 166.534C752.834 169.034 754.264 171.051 756.196 172.585C758.128 174.119 760.59 174.886 763.582 174.886ZM793.589 180V136.364H800.067V143.182H800.635C801.544 140.852 803.012 139.044 805.038 137.756C807.065 136.449 809.499 135.795 812.339 135.795C815.218 135.795 817.614 136.449 819.527 137.756C821.459 139.044 822.964 140.852 824.044 143.182H824.499C825.616 140.928 827.292 139.138 829.527 137.812C831.762 136.468 834.442 135.795 837.567 135.795C841.468 135.795 844.66 137.017 847.141 139.46C849.622 141.884 850.862 145.663 850.862 150.795V180H844.158V150.795C844.158 147.576 843.277 145.275 841.516 143.892C839.754 142.509 837.68 141.818 835.294 141.818C832.226 141.818 829.849 142.746 828.163 144.602C826.478 146.439 825.635 148.769 825.635 151.591V180H818.817V150.114C818.817 147.633 818.012 145.634 816.402 144.119C814.792 142.585 812.718 141.818 810.18 141.818C808.438 141.818 806.809 142.282 805.294 143.21C803.798 144.138 802.586 145.426 801.658 147.074C800.749 148.703 800.294 150.587 800.294 152.727V180H793.589Z" fill="white"/>
<rect x="25" y="25" width="400" height="130" rx="65" stroke="white" stroke-width="50"/>
<path d="M500 0H555V130H500V0Z" fill="white"/>
<path d="M555 0H656V50H555V0Z" fill="white"/>
<path d="M555 130H656V180H555V130Z" fill="white"/>
</svg>
