<svg width="562" height="752" viewBox="0 0 562 752" fill="none" xmlns="http://www.w3.org/2000/svg">
<path d="M0 50C0 22.3857 22.3858 0 50 0H512C539.614 0 562 22.3858 562 50V752H0V50Z" fill="white" fill-opacity="0.5"/>
<path d="M61 148.5C61 134.969 71.969 124 85.5 124H499.5C513.031 124 524 134.969 524 148.5C524 162.031 513.031 173 499.5 173H85.5C71.969 173 61 162.031 61 148.5Z" fill="white"/>
<path d="M61 257.5C61 243.969 71.969 233 85.5 233H499.5C513.031 233 524 243.969 524 257.5C524 271.031 513.031 282 499.5 282H85.5C71.969 282 61 271.031 61 257.5Z" fill="white"/>
<path d="M61 366.5C61 352.969 71.969 342 85.5 342H499.5C513.031 342 524 352.969 524 366.5C524 380.031 513.031 391 499.5 391H85.5C71.969 391 61 380.031 61 366.5Z" fill="white"/>
<path d="M397 567.5C397 553.969 407.969 543 421.5 543H499.5C513.031 543 524 553.969 524 567.5C524 581.031 513.031 592 499.5 592H421.5C407.969 592 397 581.031 397 567.5Z" fill="white"/>
<path d="M304 475.5C304 461.969 314.969 451 328.5 451H499.5C513.031 451 524 461.969 524 475.5C524 489.031 513.031 500 499.5 500H328.5C314.969 500 304 489.031 304 475.5Z" fill="white"/>
<path d="M61 475.5C61 461.969 71.969 451 85.5 451H256.5C270.031 451 281 461.969 281 475.5C281 489.031 270.031 500 256.5 500H85.5C71.969 500 61 489.031 61 475.5Z" fill="white"/>
</svg>
