<svg width="99" height="81" viewBox="0 0 99 81" fill="none" xmlns="http://www.w3.org/2000/svg">
<path d="M89.9843 2.01136L91.2794 3.82927L92.6713 5.78274L93.7549 7.30015L94.5477 11.2277L94.6329 11.9732L94.6946 12.3091L94.7562 12.6184L94.859 13.1517L95.4815 13.3815L96.6562 13.4873L97.5107 13.8733L98.0216 14.5127L98.0716 14.6188L98.3417 15.1108L98.4034 15.4674L98.33 16.4927L98.1567 17.8098L97.8631 18.6583L98.0275 19.8133L97.9747 20.3054L97.8455 20.6413L97.3198 21.0272L96.6062 21.4044L94.9001 22.5181L94.4127 22.6831L93.6991 22.7128L93.0795 22.9898L92.3453 23.5908L90.7596 25.8242L89.4058 28.0664L88.936 29.9197L88.4074 31.6876L87.2152 32.816L87.0478 33.4495L86.9979 33.8178L86.9568 34.6694L86.8129 36.0777L86.6279 36.7554L86.437 36.9556L85.1508 37.3857L84.4108 37.9014L83.9674 38.9238L83.8059 40.0287L83.5474 41.2868L83.4006 42.3917L83.2009 42.9633L82.7781 43.5644L82.1232 44.2096L81.5565 44.575L80.0794 44.8136L79.3188 46.275L78.6757 47.4152L78.6581 47.872L78.0385 50.235L76.9608 52.0146L76.8903 52.6422L76.8874 53.1578L75.5395 54.7223L75.1812 55.185L74.8377 55.789L75.1783 56.3723L75.5571 56.9027L75.6129 57.0824L75.0021 57.5803L73.9332 58.4465L73.296 58.9651L73.155 59.248L73.0611 60.5473L72.8761 60.8979L72.4503 61.3752L71.8248 61.8997L71.1905 62.3063L70.4711 62.5892L69.781 62.6953L69.3933 62.5303L69.1731 62.1354L68.7855 60.5444L68.5887 60.2026L68.1394 59.8932L67.2526 59.0211L66.354 58.1401L65.2704 57.5214L65.0384 57.5656L64.8593 57.7336L64.551 58.6205L64.2485 58.9446L63.6788 59.0569L62.6892 59.0627L61.9668 58.9387L61.8024 58.762L61.6556 58.3789L61.4559 58.0725L60.5925 58.6942L59.2358 59.6724L58.7954 59.8313L58.4577 60.0285L58.0113 60.939L57.4681 61.9142L56.7603 62.424L56.0703 62.8541L55.6738 63.2283L55.1071 63.6703L53.9971 64.7752L52.5259 66.2366L52.0061 66.9909L51.4922 68.1194L51.1927 69.3687L50.8667 70.7358L50.3881 72.9338L49.6833 74.1772L49.0666 75.1642L48.6085 75.9391L48.3677 76.5785L48.2679 76.558L48.0271 76.8321L47.3399 76.6524L47.0316 76.0955L46.6058 76.004L45.8717 75.1879L45.716 75.3233L46.4913 77.3976L46.2035 78.2079L44.0216 78.2255L42.1452 78.4966L40.8561 78.4732L40.21 78.1785L39.9222 77.4007L39.8106 77.4804L39.746 77.8958L39.3379 78.2229L37.8902 78.2848L37.25 77.7544L36.7331 77.1592L36.1782 76.8969L36.2633 77.1443L36.9005 77.7247L36.8242 78.5585L35.6584 79.5249L34.9154 79.5809L34.4603 79.1655L34.2224 78.4878L34.102 77.486L33.7966 76.8319H33.6322L33.7849 77.43L33.8348 77.9191L33.8407 78.9356L34.3957 79.7253L33.5441 79.9697L33.1976 79.9785L32.5222 79.9961L32.393 79.7015L32.2637 79.0474L32.0846 78.8765L31.8761 79.9843L31.4268 80.0611L31.1156 80.0523L29.7765 80.2939L29.477 80.2467L29.4153 80.0406L29.5739 79.7342L29.5386 79.2362L29.0747 79.6193L29.0013 80.3883L28.737 80.5122L27.9412 80.4035L27.069 80.0087L26.5375 79.605L25.6507 79.0423L23.9122 77.4659L23.6303 76.7558L23.134 75.8867L22.764 75.0028L22.2296 73.4942L22.394 73.3854L22.7963 73.515L22.9931 73.2881L22.2707 73.1231L22.1209 72.9463L22.071 72.416L22.1033 71.7677L22.6906 71.5409L23.1987 71.4286L23.4541 71.0367L23.6009 70.6419L22.2531 71.24L20.9874 70.5624L20.7143 70.1528L20.8524 69.8375L21.4573 69.7904L22.3206 69.8138L22.8375 69.5074L22.5203 69.3984L21.9624 69.4101L21.7568 69.2066L21.7744 68.7146L21.5924 68.8236L21.3516 69.2597L20.5 69.5808L20.0008 69.2597L19.9508 68.5467L19.8422 68.2255L19.4223 67.9749L17.9305 66.0863L16.057 64.5099L14.392 63.4227L11.8754 62.9042L6.60721 62.9247L6.31063 62.7746L6.63363 62.5272L7.09468 62.3592L8.78905 61.4783L8.5042 61.3604L6.74229 61.9114L6.14029 61.9644L5.35917 63.0222L0.719438 63.1989L0.176185 63.2549L0.187925 62.7717L0.414049 61.381L0.563819 60.833L0.73707 60.4205L0.557927 59.9255L0.381742 59.2537L0.296584 58.1989L0.513881 57.8718L0.587299 57.4741L0.534448 56.8494V54.7634L0.660717 54.5365L0.810487 54.3627L0.819292 54.0857L0.537383 53.5465L0.27604 52.9307L0.284845 52.0438L0.17912 51.1864L0 50.7945L0.135074 49.3331L0.211427 47.4828L0.140944 46.6607L0.311259 46.0803L0.402309 44.6513L0.387612 43.2517L0.734135 41.0389L1.75018 40.9331L2.96002 40.7476L3.50036 39.8784L3.81162 38.7764L3.71178 37.6863L3.94671 37.3268L4.43122 36.7346L5.30632 35.889L5.27108 34.9608L5.51188 34.675L5.92593 34.4599L6.51912 34.3511L7.18277 33.8885L7.54984 33.0783L7.91104 31.7819L7.34135 30.8773L7.35015 30.6771L7.56745 30.1909L7.91691 29.7048L8.19294 29.5488L8.83899 29.6725L8.95056 29.6312L9.05041 29.4782L9.4674 28.0433L9.42922 27.6573L8.82722 26.6968L8.72739 26.0132L8.6393 24.9967L8.49246 24.0951L8.31921 23.7533L7.99913 23.4675L7.85523 23.282L6.61015 21.4493L6.63069 20.5802L7.1534 19.4693L7.49405 18.9302L7.96976 18.6296L8.06374 18.3731L7.92278 18.0608L7.68198 17.8251L7.62619 17.3242L7.69372 16.9913L7.86405 16.626L7.79651 15.8599L7.81118 14.6843L7.89047 12.9695L7.91397 11.9205L8.92414 11.1427L10.3953 9.8551L11.1442 8.50857L11.5465 7.48914L12.0398 4.09487L12.3981 3.88851L12.8209 3.72964L14.298 2.49215L15.4344 2.03252L16.3037 1.76725L17.6104 1.5433L18.4209 1.63474L19.898 1.69074L21.0608 1.56705L22.0475 0.892307L22.4939 0.70383L23.1223 0.585999L25.9766 1.4964L28.828 2.35676L29.3448 2.27704L29.7794 2.3978L30.493 2.86333L31.5443 3.86216L32.1698 4.50743L32.4722 4.88456L33.9376 7.05019L34.4838 7.59527L35.0329 7.89286L35.5908 7.99868L36.0196 7.95736L36.4248 7.71291L36.9769 7.22973L37.8167 7.00871L38.501 7.05297L42.0512 5.10538L42.3948 5.07899L43.4285 5.232L44.5767 5.5002L47.5514 7.45367L49.9799 8.73242L51.686 9.15965L53.6975 9.46312L57.1127 9.55456L59.6939 6.81735L60.6483 6.21922L61.7994 5.68002L62.1694 5.58858L64.1986 5.17312L68.1776 4.82251L71.91 4.97552L72.6441 5.08427L74.2298 5.44669L76.673 6.33945L77.7272 7.19683L79.3834 7.33812L80.5698 7.16722L80.9574 6.31867L82.1497 5.20199L83.0159 4.74824L83.9351 4.1678L85.3916 3.44589L86.5897 3.12183L87.6615 2.29385L88.5102 2.03151L89.9843 2.011V2.01136ZM38.0164 79.3517L37.2206 79.6023L36.6979 79.5405L37.4144 78.4503L37.7786 78.686L38.2455 78.7833L38.0164 79.352V79.3517Z" fill="#029834"/>
</svg>
